PathFileType	4	(X/Y/Z)	/Users/itak/Documents/Research/Walk-IL/dataset/trc/00119_00007.trc
DataRate	CameraRate	NumFrames	NumMarkers	Units	OrigDataRate	OrigDataStartFrame	OrigNumFrames
100.000000	100.000000	4	53	mm	100.000000	447	716
Frame#	Time	RPSI			LPSI			L3			STRN			T10			C7			CLAV			RBAK			LBAK			LSHO			LUPA			LAEL			LAOL			LWTS			LWPS			LFRA			LIFD			LHPS			LHTS			RSHO			RUPA			RAEL			RAOL			RWTS			RWPS			RFRA			RIFD			RHTS			RHPS			RBHD			LFHD			RFHD			LBHD			LHIP			RHIP			RASI			LASI			LKNE			LTHI			LANK			LTIP			LTOE			LMT1			LMT5			LHEE			RKNE			RTHI			RANK			RTIP			RTOE			RMT1			RMT5			RHEE			
		X1	Y1	Z1	X2	Y2	Z2	X3	Y3	Z3	X4	Y4	Z4	X5	Y5	Z5	X6	Y6	Z6	X7	Y7	Z7	X8	Y8	Z8	X9	Y9	Z9	X10	Y10	Z10	X11	Y11	Z11	X12	Y12	Z12	X13	Y13	Z13	X14	Y14	Z14	X15	Y15	Z15	X16	Y16	Z16	X17	Y17	Z17	X18	Y18	Z18	X19	Y19	Z19	X20	Y20	Z20	X21	Y21	Z21	X22	Y22	Z22	X23	Y23	Z23	X24	Y24	Z24	X25	Y25	Z25	X26	Y26	Z26	X27	Y27	Z27	X28	Y28	Z28	X29	Y29	Z29	X30	Y30	Z30	X31	Y31	Z31	X32	Y32	Z32	X33	Y33	Z33	X34	Y34	Z34	X35	Y35	Z35	X36	Y36	Z36	X37	Y37	Z37	X38	Y38	Z38	X39	Y39	Z39	X40	Y40	Z40	X41	Y41	Z41	X42	Y42	Z42	X43	Y43	Z43	X44	Y44	Z44	X45	Y45	Z45	X46	Y46	Z46	X47	Y47	Z47	X48	Y48	Z48	X49	Y49	Z49	X50	Y50	Z50	X51	Y51	Z51	X52	Y52	Z52	X53	Y53	Z53	

448	4.47	-45.37237930297852	1091.376953125	-872.0748291015625	8.535122871398926	1091.448120117188	-746.9926147460938	-13.17840766906738	1125.439697265625	-807.2814331054688	-210.5675048828125	1324.999267578125	-721.2142944335938	26.01926040649414	1277.340698242188	-816.6973266601562	1.9684157371521	1568.202392578125	-782.1949462890625	-173.1553497314453	1459.429809570312	-728.5843505859375	17.92419815063477	1387.66552734375	-888.4949951171875	43.95468902587891	1543.739135742188	-690.03466796875	-15.19461059570312	1526.163330078125	-596.393310546875	19.05636978149414	1392.886474609375	-538.2347412109375	-14.82490062713623	1175.632934570312	-507.793212890625	32.62026596069336	1155.472534179688	-581.811279296875	-189.1764678955078	960.4855346679688	-516.8362426757812	-116.9168853759766	909.5242919921875	-515.9777221679688	-57.69808959960938	1066.54443359375	-497.6294860839844	-267.208251953125	783.2425537109375	-534.8493041992188	-166.4843292236328	846.836669921875	-506.0925598144531	-227.5247192382812	878.911865234375	-501.6246337890625	-115.9437713623047	1555.80029296875	-932.1244506835938	-122.9975738525391	1485.7939453125	-1000.795654296875	-123.2937469482422	1195.150512695312	-1046.133666992188	-85.47341156005859	1187.78076171875	-958.1405029296875	-259.4136657714844	951.8381958007812	-1007.770385742188	-200.0465850830078	937.4932861328125	-1059.958374023438	-152.5703735351562	1123.283203125	-1058.654663085938	-283.2674865722656	757.6004028320312	-996.1526489257812	-294.7926025390625	845.262451171875	-1011.8974609375	-239.9753570556641	838.9271240234375	-1060.050659179688	-95.47361755371094	1757.9482421875	-816.281005859375	-143.9717254638672	1775.955932617188	-601.3177490234375	-223.4851226806641	1806.3466796875	-699.9906005859375	-6.213176250457764	1734.663452148438	-718.3310546875	-32.73699569702148	999.2702026367188	-609.909912109375	-219.6969451904297	1003.075866699219	-928.3519897460938	-262.9734191894531	1071.735595703125	-844.0662841796875	-148.8656768798828	1063.144287109375	-604.4326171875	-71.49657440185547	497.8018188476562	-722.6732788085938	-46.96874237060547	640.7974853515625	-670.2030029296875	123.2531051635742	41.7939338684082	-845.0698852539062	64.83797454833984	267.7864685058594	-760.9403686523438	-106.0773544311523	30.24612998962402	-904.37158203125	-23.02837562561035	34.08736419677734	-937.5844116210938	-0.8710228204727173	40.20201873779297	-824.9607543945312	195.0116577148438	52.06754302978516	-905.7101440429688	-383.4359130859375	554.8978271484375	-833.8504028320312	-300.5989379882812	811.0001220703125	-899.5325317382812	-503.1393432617188	41.45810699462891	-802.3304443359375	-422.6609497070312	426.469482421875	-841.1085815429688	-632.34912109375	149.3784027099609	-643.3380126953125	-566.2823486328125	119.414924621582	-636.1076049804688	-613.3306884765625	88.03589630126953	-744.0269775390625	-428.7766723632812	27.79068374633789	-797.5711059570312	
449	4.48	-55.98020172119141	1089.568481445312	-869.9000244140625	-0.3718263506889343	1089.743041992188	-745.5653076171875	-22.84089469909668	1123.66943359375	-805.58154296875	-218.9018096923828	1323.0771484375	-717.1951293945312	16.57314872741699	1275.5283203125	-815.3583984375	-6.97609806060791	1566.3896484375	-780.4863891601562	-181.5718688964844	1457.498291015625	-724.9954223632812	7.829013824462891	1385.732299804688	-886.9406127929688	35.94209671020508	1541.855346679688	-688.7698974609375	-22.30761528015137	1524.116088867188	-594.4329223632812	12.78668308258057	1390.835815429688	-536.9400634765625	-20.42507934570312	1173.395141601562	-506.490966796875	26.37862014770508	1153.614135742188	-581.0172119140625	-193.0818939208984	956.7095947265625	-514.31591796875	-120.3086090087891	906.436279296875	-514.2669677734375	-62.3453369140625	1064.02587890625	-496.0971069335938	-269.7117309570312	778.751953125	-531.94873046875	-169.1857757568359	843.2709350585938	-504.055419921875	-230.5066375732422	874.7301025390625	-498.9307861328125	-126.4791870117188	1553.85205078125	-929.1522216796875	-134.2151489257812	1483.89794921875	-997.806640625	-135.4491729736328	1193.401611328125	-1043.801635742188	-96.81165313720703	1185.685424804688	-956.210693359375	-272.2448120117188	950.709228515625	-1004.546997070312	-213.5752716064453	936.0488891601562	-1057.21533203125	-165.1311645507812	1121.631591796875	-1056.185791015625	-297.4868774414062	756.7211303710938	-993.076171875	-308.7989807128906	844.4747314453125	-1008.649108886719	-254.1013641357422	837.773681640625	-1057.182373046875	-104.6871948242188	1756.046020507812	-813.8129272460938	-150.8394622802734	1774.370849609375	-598.3807983398438	-231.1216430664062	1804.679077148438	-696.12060546875	-14.41807651519775	1732.759887695312	-716.8233642578125	-40.06624603271484	997.482177734375	-607.9329223632812	-230.6538238525391	1001.158752441406	-924.4546508789062	-272.9349060058594	1069.879760742188	-839.4849853515625	-156.1052551269531	1061.219360351562	-601.0927734375	-77.04293823242188	496.4538879394531	-720.5809326171875	-53.03609848022461	639.3492431640625	-668.3983154296875	123.0267486572266	42.44761276245117	-845.4048461914062	62.22292709350586	267.9701232910156	-760.2720336914062	-106.2240524291992	30.15755271911621	-904.322998046875	-23.25765228271484	34.38648223876953	-937.5090942382812	-0.8971757888793945	39.93024826049805	-824.904296875	194.7084045410156	54.03375244140625	-906.295654296875	-390.9205627441406	552.3292846679688	-829.66552734375	-309.9342651367188	808.3358154296875	-895.7578735351562	-519.156494140625	41.72116088867188	-788.5809936523438	-432.1452941894531	424.9622497558594	-835.137451171875	-643.8611450195312	154.5998077392578	-629.204345703125	-578.0065307617188	123.8122940063477	-622.5001220703125	-627.7072143554688	90.98429107666016	-728.8788452148438	-445.0720520019531	26.75843620300293	-784.646484375	
450	4.49	-66.66359710693359	1087.841796875	-867.6635131835938	-9.468412399291992	1088.122192382812	-744.0519409179688	-32.6227912902832	1121.965698242188	-803.8029174804688	-227.3507232666016	1321.246948242188	-713.1253051757812	7.020516395568848	1273.757202148438	-813.9112548828125	-15.97278881072998	1564.622680664062	-778.6575927734375	-190.040771484375	1455.650756835938	-721.3132934570312	-2.311830043792725	1383.840087890625	-885.2500610351562	27.8545970916748	1540.008544921875	-687.3895874023438	-29.4766788482666	1522.138305664062	-592.3729248046875	6.427235126495361	1388.839965820312	-535.5684204101562	-26.10756492614746	1171.206420898438	-505.1354675292969	19.91304206848145	1151.815551757812	-580.2116088867188	-196.8198547363281	952.8014526367188	-511.7080078125	-123.4904937744141	903.3240966796875	-512.534912109375	-66.92672729492188	1061.526611328125	-494.5042114257812	-271.8087768554688	774.0781860351562	-528.9738159179688	-171.5862121582031	839.6185302734375	-501.9798889160156	-233.1933441162109	870.369873046875	-496.1456298828125	-137.0211334228516	1551.951904296875	-926.0719604492188	-145.4301147460938	1482.035034179688	-994.6956787109375	-147.6380767822266	1191.679565429688	-1041.248901367188	-108.2114562988281	1183.642944335938	-954.0448608398438	-285.0271911621094	949.5541381835938	-1001.1416015625	-227.0256500244141	934.6221313476562	-1054.279418945312	-177.7076263427734	1120.010131835938	-1053.498046875	-311.5444030761719	755.806396484375	-989.8335571289062	-322.6421508789062	843.6298217773438	-1005.265502929688	-268.0953369140625	836.615478515625	-1054.132446289062	-113.9893417358398	1754.217651367188	-811.2361450195312	-157.8153228759766	1772.84765625	-595.3567504882812	-238.8208465576172	1803.025146484375	-692.1630249023438	-22.70074272155762	1730.97705078125	-715.2003784179688	-47.66297912597656	995.7454223632812	-605.8612670898438	-241.7335510253906	999.2881469726562	-920.4851684570312	-282.967041015625	1068.098754882812	-834.8876953125	-163.5529479980469	1059.381469726562	-597.7109985351562	-82.62093353271484	495.26318359375	-718.4434204101562	-59.20226669311523	637.9929809570312	-666.4041748046875	122.7754592895508	43.27250289916992	-845.5297241210938	59.51906585693359	268.2036743164062	-759.4138793945312	-106.3362731933594	30.0894660949707	-904.3031005859375	-23.47151184082031	34.79067993164062	-937.350341796875	-0.9314451217651367	39.6631965637207	-824.7117309570312	194.3943939208984	56.25428009033203	-906.6182250976562	-398.6519775390625	549.8935546875	-825.05712890625	-319.5091552734375	805.8615112304688	-891.5859375	-532.9588623046875	41.62404632568359	-776.1148071289062	-441.3512573242188	423.3602905273438	-829.0619506835938	-653.7947998046875	158.3509216308594	-616.3286743164062	-588.2151489257812	126.8720855712891	-610.2007446289062	-640.0686645507812	92.94761657714844	-715.1547241210938	-459.0865173339844	25.66168212890625	-772.914306640625	
451	4.5	-77.44434356689453	1086.210815429688	-865.3396606445312	-18.75984191894531	1086.610717773438	-742.4281005859375	-42.54354095458984	1120.353149414062	-801.9149780273438	-235.9276123046875	1319.544921875	-709.0208740234375	-2.646149158477783	1272.047973632812	-812.334716796875	-25.0243091583252	1562.923828125	-776.7008056640625	-198.580322265625	1453.921264648438	-717.5513916015625	-12.50360202789307	1382.020629882812	-883.4183349609375	19.68633842468262	1538.224731445312	-685.8832397460938	-36.71315002441406	1520.264038085938	-590.212158203125	-0.04402162879705429	1386.923828125	-534.1033325195312	-31.87296485900879	1169.09814453125	-503.7327575683594	13.21253776550293	1150.099609375	-579.3936767578125	-200.3781280517578	948.797119140625	-509.0143737792969	-126.4576950073242	900.230712890625	-510.7932739257812	-71.48383331298828	1059.077758789062	-492.8753356933594	-273.4794921875	769.265380859375	-525.9345703125	-173.6776733398438	835.9210205078125	-499.8785095214844	-235.5709838867188	865.87255859375	-493.2717895507812	-147.5527038574219	1550.143432617188	-922.8917236328125	-156.6306457519531	1480.246337890625	-991.4669189453125	-159.8621368408203	1190.020141601562	-1038.457275390625	-119.6569137573242	1181.717529296875	-951.6318359375	-297.7389831542969	948.3953857421875	-997.5502319335938	-240.3541412353516	933.2503662109375	-1051.146240234375	-190.2917938232422	1118.4580078125	-1050.576049804688	-325.4002990722656	754.869384765625	-986.4296264648438	-336.3134155273438	842.7587280273438	-1001.738647460938	-281.9122314453125	835.480224609375	-1050.89990234375	-123.3771667480469	1752.494262695312	-808.5473022460938	-164.8994598388672	1771.41796875	-592.2449340820312	-246.6012573242188	1801.423706054688	-688.1251831054688	-31.05076599121094	1729.344604492188	-713.4547119140625	-55.54894256591797	994.073486328125	-603.6787719726562	-252.9074096679688	997.514404296875	-916.4437255859375	-293.0842590332031	1066.430541992188	-830.287353515625	-171.2190246582031	1057.660522460938	-594.2918090820312	-88.27263641357422	494.1969909667969	-716.2103271484375	-65.48484802246094	636.7457885742188	-664.2107543945312	122.4955368041992	44.28006362915039	-845.4180908203125	56.71143341064453	268.5245361328125	-758.3303833007812	-106.4098129272461	30.04199028015137	-904.3085327148438	-23.66524887084961	35.30094909667969	-937.0924682617188	-0.9918088912963867	39.40618896484375	-824.3760375976562	194.0601806640625	58.74475479125977	-906.6383056640625	-406.6895446777344	547.635986328125	-819.9739990234375	-329.3703308105469	803.6500854492188	-887.0090942382812	-544.5084228515625	41.01995086669922	-765.0814208984375	-450.30810546875	421.6487121582031	-822.8449096679688	-662.1015625	160.3311767578125	-604.6459350585938	-596.8157348632812	128.3445892333984	-599.2160034179688	-650.382568359375	93.67557525634766	-702.8984375	-470.7399291992188	24.4730052947998	-762.61328125	
